<?xml version="1.0" standalone="no"?>
<!DOCTYPE svg PUBLIC "-//W3C//DTD SVG 20010904//EN"
 "http://www.w3.org/TR/2001/REC-SVG-20010904/DTD/svg10.dtd">
<svg version="1.0" xmlns="http://www.w3.org/2000/svg"
 width="800.000000pt" height="800.000000pt" viewBox="0 0 800.000000 800.000000"
 preserveAspectRatio="xMidYMid meet">

<g transform="translate(0.000000,800.000000) scale(0.100000,-0.100000)"
fill="#000000" stroke="none">
<path d="M3939 7928 c-30 -35 -99 -116 -153 -180 -54 -65 -102 -118 -106 -118
-5 0 -69 51 -142 113 -74 61 -157 131 -185 154 l-50 43 -118 -206 c-65 -113
-123 -208 -129 -210 -7 -3 -104 49 -216 115 -113 65 -208 116 -211 112 -3 -3
-41 -106 -85 -228 -43 -123 -83 -223 -87 -223 -5 0 -108 36 -229 80 -121 45
-222 79 -225 76 -5 -5 -68 -344 -79 -423 -3 -29 -10 -53 -13 -53 -4 0 -110 18
-235 40 -125 22 -231 40 -237 40 -5 0 -9 -100 -9 -245 l0 -245 -245 0 c-213 0
-245 -2 -245 -15 0 -9 18 -117 40 -242 22 -124 39 -227 38 -228 -2 -1 -106
-20 -231 -41 -126 -21 -234 -42 -239 -46 -7 -4 19 -87 72 -233 45 -124 81
-227 79 -229 -2 -2 -101 -38 -219 -81 -118 -42 -220 -80 -227 -84 -8 -4 27
-74 108 -214 66 -114 117 -211 114 -216 -3 -5 -72 -48 -153 -94 -81 -46 -173
-100 -204 -119 l-58 -35 155 -184 c85 -101 155 -187 155 -191 0 -3 -83 -75
-185 -160 l-184 -153 42 -39 c23 -21 106 -92 185 -158 78 -65 142 -122 142
-126 0 -4 -70 -90 -155 -191 -138 -164 -153 -186 -137 -196 9 -6 94 -55 187
-109 94 -53 181 -105 194 -115 l24 -19 -90 -153 c-49 -85 -104 -179 -121 -210
l-31 -57 27 -10 c15 -6 117 -43 227 -83 110 -39 202 -73 204 -75 2 -2 -34
-105 -79 -229 -45 -124 -80 -228 -77 -231 3 -3 110 -24 239 -46 128 -22 234
-41 235 -42 3 -3 -75 -456 -82 -474 -3 -9 50 -12 245 -12 l250 0 0 -245 0
-246 32 5 c18 3 127 22 241 42 114 20 209 35 211 33 1 -2 20 -107 41 -234 21
-126 41 -233 45 -238 3 -4 98 26 211 67 112 41 215 77 229 81 25 6 27 1 105
-220 44 -123 84 -225 89 -225 5 0 77 39 160 87 83 47 176 101 208 119 l56 32
123 -214 123 -213 50 42 c267 225 318 267 326 267 5 0 78 -83 163 -185 l155
-184 153 182 c84 100 155 185 158 189 3 4 89 -63 191 -148 101 -85 188 -154
192 -154 7 0 9 3 144 237 54 95 104 173 109 173 6 0 102 -54 215 -119 l205
-119 28 71 c15 40 53 143 83 230 31 86 60 157 65 157 4 0 108 -36 230 -80 122
-45 224 -79 226 -77 2 3 22 110 44 238 22 129 42 236 44 238 2 1 109 -15 237
-38 128 -23 236 -41 241 -41 4 0 7 110 7 245 l0 245 245 0 c135 0 245 3 245 7
0 4 -19 113 -41 241 -23 128 -40 235 -38 236 2 2 109 22 237 44 128 21 235 42
238 44 2 3 -31 105 -76 226 -44 122 -80 225 -80 230 0 5 98 44 218 86 119 43
221 82 226 87 8 7 -35 90 -167 316 l-66 112 212 122 c117 67 213 123 214 123
1 1 -56 72 -128 157 -72 84 -144 170 -159 189 l-28 35 189 158 189 158 -180
150 c-99 83 -183 155 -186 160 -7 12 14 40 176 231 l129 152 -27 17 c-15 9
-111 64 -214 123 l-186 108 123 213 123 214 -86 31 c-315 113 -372 135 -372
143 0 4 36 108 80 229 45 123 77 224 71 227 -5 3 -113 24 -240 45 -135 23
-231 44 -231 50 0 6 18 112 40 236 22 123 40 228 40 232 0 4 -110 8 -245 8
l-245 0 0 245 c0 189 -3 245 -12 245 -7 0 -98 -15 -203 -34 -104 -18 -209 -36
-232 -40 l-41 -6 -7 43 c-20 125 -75 431 -79 434 -2 2 -104 -32 -226 -76 -122
-45 -225 -81 -229 -81 -4 0 -45 103 -91 230 l-83 230 -31 -19 c-17 -10 -78
-46 -136 -79 -58 -33 -140 -80 -182 -105 l-77 -46 -79 137 c-44 75 -99 172
-124 215 l-44 77 -188 -158 -188 -159 -32 36 c-18 20 -88 102 -155 184 -68 81
-126 147 -131 147 -4 0 -32 -28 -61 -62z m431 -504 c674 -69 1323 -348 1855
-796 124 -104 365 -352 462 -475 398 -501 639 -1065 730 -1708 26 -187 26
-703 0 -890 -55 -389 -156 -723 -322 -1060 -175 -359 -358 -617 -639 -903
-538 -549 -1205 -888 -1974 -1003 -197 -30 -628 -37 -842 -15 -1499 159 -2725
1276 -3019 2751 -110 550 -85 1108 75 1655 289 995 1065 1843 2034 2223 531
208 1066 280 1640 221z"/>
<path d="M3810 7374 c-262 -22 -430 -49 -630 -99 -1044 -262 -1898 -1004
-2309 -2003 -169 -411 -246 -809 -246 -1272 0 -453 70 -822 232 -1235 425
-1079 1377 -1865 2523 -2084 397 -75 857 -74 1261 5 1041 202 1933 889 2399
1849 329 679 420 1461 255 2200 -208 930 -803 1730 -1640 2207 -379 216 -823
360 -1275 414 -122 14 -480 26 -570 18z m570 -169 c731 -91 1384 -409 1900
-925 527 -527 850 -1203 931 -1950 16 -146 16 -510 0 -660 -116 -1088 -771
-2045 -1736 -2537 -379 -193 -712 -293 -1145 -344 -154 -18 -537 -15 -700 5
-737 91 -1386 403 -1901 916 -154 154 -241 256 -359 420 -319 446 -513 953
-582 1525 -18 153 -15 583 5 735 63 459 200 865 418 1236 480 817 1296 1387
2224 1553 95 17 200 29 385 45 91 8 438 -4 560 -19z"/>
<path d="M3805 7063 c-473 -30 -976 -187 -1376 -429 -230 -139 -393 -267 -595
-468 -254 -254 -429 -497 -584 -811 -161 -326 -245 -602 -297 -975 -24 -176
-24 -584 1 -765 50 -363 135 -644 296 -970 437 -887 1266 -1504 2245 -1670
583 -99 1193 -22 1740 219 350 155 652 362 930 641 352 351 589 734 745 1205
246 739 204 1510 -119 2230 -148 330 -359 630 -635 905 -219 217 -440 383
-699 523 -497 270 -1090 401 -1652 365z m252 -285 c27 -25 29 -59 7 -97 -15
-25 -13 -30 55 -170 38 -78 72 -145 74 -148 3 -2 79 19 170 48 157 49 165 53
171 80 21 104 160 84 146 -21 -3 -27 -38 -53 -75 -55 -36 -2 -37 -4 -159 -206
l-123 -204 -318 0 -319 0 -120 201 c-120 200 -121 202 -159 207 -51 7 -77 32
-77 74 0 43 30 73 73 73 39 0 64 -23 73 -66 6 -29 11 -32 157 -78 84 -27 160
-51 170 -53 14 -4 31 22 88 142 70 146 70 148 55 180 -21 44 -20 64 6 92 28
30 74 30 105 1z m283 -863 l0 -45 -335 0 -335 0 0 45 0 45 335 0 335 0 0 -45z
m-1 -251 c44 -13 67 -28 116 -77 100 -100 125 -188 125 -438 l0 -159 -139 0
-139 0 -4 173 c-3 189 -14 231 -63 243 -40 10 -73 -4 -92 -39 -17 -30 -18 -78
-18 -647 0 -603 0 -616 21 -650 18 -31 25 -35 63 -35 36 0 47 5 65 28 19 26
21 44 25 193 1 91 0 180 -3 199 -7 34 -8 35 -56 35 l-50 0 0 120 0 120 195 0
195 0 0 -465 0 -465 -62 0 c-35 0 -72 -3 -84 -6 -18 -5 -24 2 -38 35 l-16 41
-44 -34 c-59 -44 -106 -60 -186 -60 -154 1 -270 111 -300 285 -8 44 -10 263
-8 689 3 620 4 625 26 685 27 70 62 127 106 167 86 81 218 103 365 62z m-1639
-384 l0 -380 105 0 105 0 0 380 0 380 140 0 140 0 0 -930 0 -930 -140 0 -140
0 0 400 0 400 -105 0 -105 0 0 -400 0 -400 -140 0 -140 0 0 930 0 930 140 0
140 0 0 -380z m960 -550 l0 -930 -140 0 -140 0 0 930 0 930 140 0 140 0 0
-930z m1390 550 l0 -380 105 0 105 0 0 380 0 380 140 0 140 0 0 -929 0 -930
-132 -3 c-73 -2 -136 -2 -140 0 -5 2 -8 183 -8 403 l0 399 -105 0 -105 0 0
-402 0 -403 -138 0 -137 0 -3 933 -2 932 140 0 140 0 0 -380z m-3292 175 c4
-156 -45 -314 -135 -432 -19 -25 -39 -60 -44 -77 -9 -29 -49 -222 -49 -233 0
-3 10 7 22 22 33 42 129 100 198 119 34 10 64 15 67 12 11 -11 -27 -141 -59
-205 -39 -77 -150 -199 -212 -231 -25 -14 -47 -33 -50 -45 -3 -11 -6 -58 -6
-104 l0 -84 28 39 c42 57 98 103 166 135 l61 29 3 -55 c7 -127 -62 -288 -169
-398 l-70 -70 13 -98 12 -98 30 55 c36 64 90 123 147 161 53 35 59 26 59 -101
0 -152 -35 -259 -122 -373 l-40 -52 28 -95 29 -94 20 57 c34 93 142 228 165
205 19 -19 40 -132 40 -219 0 -102 -17 -181 -59 -271 -25 -53 -35 -64 -76 -84
-44 -21 -53 -22 -103 -12 -106 22 -238 126 -300 233 -30 54 -72 165 -72 193 0
32 175 -32 256 -93 l51 -38 -32 100 c-26 86 -35 102 -55 107 -93 25 -216 136
-267 241 -29 59 -63 189 -63 239 0 17 4 20 23 15 53 -17 146 -74 201 -125 l59
-55 -6 40 c-4 22 -9 66 -13 97 -6 55 -9 59 -49 82 -107 63 -205 216 -226 355
-11 71 -9 165 4 177 3 3 31 -11 61 -31 59 -39 137 -119 164 -169 17 -31 17
-31 20 71 l3 101 -56 56 c-109 108 -160 271 -136 433 6 48 16 94 21 102 14 25
128 -98 172 -185 l35 -71 27 131 c21 103 26 146 21 201 -12 126 36 283 118
385 40 49 116 111 132 106 6 -1 11 -47 13 -101z m4587 33 c116 -118 174 -275
159 -437 -6 -58 17 -214 43 -301 2 -8 18 13 36 50 19 38 59 94 99 135 l66 70
12 -29 c20 -53 30 -169 20 -238 -17 -118 -85 -250 -156 -305 l-34 -25 0 -106
0 -105 26 39 c37 56 112 130 165 164 25 17 49 30 52 30 13 0 7 -187 -8 -245
-30 -112 -133 -253 -212 -289 l-39 -17 -15 -104 -14 -103 63 59 c50 47 181
129 207 129 11 0 4 -98 -10 -155 -41 -155 -176 -305 -316 -348 -10 -3 -26 -38
-43 -91 -15 -48 -29 -93 -33 -102 -3 -9 15 0 42 20 58 45 91 62 163 87 49 17
102 25 102 16 0 -2 -7 -28 -16 -58 -44 -149 -142 -269 -277 -339 -90 -46 -124
-49 -187 -17 -36 17 -51 33 -72 77 -39 79 -60 172 -61 270 0 91 27 230 46 230
38 0 167 -188 167 -242 0 -41 17 -12 42 73 l28 91 -35 41 c-41 47 -85 137
-112 223 -18 60 -25 230 -10 267 6 17 9 17 38 1 49 -25 121 -96 154 -153 17
-28 32 -51 35 -51 3 0 11 41 17 91 l12 91 -54 50 c-63 57 -129 157 -157 237
-19 56 -39 219 -28 226 12 7 114 -46 158 -82 24 -19 55 -53 69 -74 14 -22 28
-37 31 -35 2 3 1 50 -3 105 -6 90 -9 100 -29 105 -60 15 -193 158 -242 261
-31 65 -63 180 -52 190 9 9 123 -26 165 -51 23 -13 58 -39 77 -58 33 -30 36
-31 36 -12 0 11 -11 70 -25 129 -19 86 -31 116 -55 143 -35 40 -84 134 -112
214 -38 110 -45 330 -10 330 8 0 47 -33 87 -72z m-835 -2038 l0 -90 -1532 2
-1533 3 -3 88 -3 87 1536 0 1535 0 0 -90z m-2843 -261 c45 -17 91 -69 113
-126 19 -50 20 -78 20 -417 0 -293 -3 -372 -15 -412 -8 -27 -15 -50 -15 -50 0
-1 14 -7 30 -14 30 -12 30 -14 30 -86 0 -68 -2 -74 -20 -74 -30 0 -91 28 -118
53 -20 19 -36 22 -100 23 -110 0 -159 31 -201 124 -20 43 -21 64 -21 426 0
407 2 427 51 496 12 17 40 39 63 49 46 21 139 25 183 8z m403 -447 c0 -389 2
-450 16 -470 21 -31 62 -29 74 4 6 15 10 205 10 470 l0 444 85 0 85 0 0 -448
c0 -514 -2 -526 -74 -598 -106 -106 -276 -73 -340 66 -20 43 -21 63 -24 513
l-3 467 85 0 86 0 0 -448z m704 421 c5 -27 95 -621 136 -896 28 -194 34 -177
-54 -177 -41 0 -77 4 -80 9 -3 4 -11 52 -17 106 -14 111 -21 118 -113 113
l-51 -3 -15 -110 -15 -110 -80 0 c-74 0 -80 1 -78 20 5 43 155 1051 159 1063
2 8 32 12 103 12 l99 0 6 -27z m396 -443 l0 -470 105 0 105 0 0 -80 0 -80
-190 0 -190 0 0 550 0 550 85 0 85 0 0 -470z m435 -80 l0 -545 -82 -3 -83 -3
0 551 0 551 83 -3 82 -3 0 -545z m525 465 l0 -85 -75 0 -75 0 0 -465 0 -466
-82 3 -83 3 -3 463 -2 462 -75 0 -75 0 0 85 0 85 235 0 235 0 0 -85z m175 73
c2 -7 21 -87 42 -178 l38 -164 40 174 40 175 83 3 c45 2 82 1 82 -1 0 -3 -35
-134 -77 -293 l-78 -289 -5 -255 -5 -255 -82 -3 -83 -3 0 232 0 232 -80 313
c-44 171 -80 315 -80 318 0 3 36 6 80 6 56 0 82 -4 85 -12z m-1245 -1446 l55
-107 55 -8 c30 -4 86 -13 124 -18 l68 -11 -90 -92 -90 -91 20 -114 c11 -62 17
-116 13 -119 -3 -3 -52 19 -110 49 l-104 54 -106 -53 c-59 -29 -110 -51 -112
-48 -3 3 3 57 13 121 l18 116 -88 88 -88 89 63 11 c35 6 90 13 122 17 l58 7
55 108 c31 60 59 109 62 109 4 0 32 -48 62 -108z m-801 -101 l30 -59 66 -7
c36 -3 65 -10 65 -14 0 -4 -21 -27 -46 -51 -49 -48 -50 -52 -28 -158 l7 -34
-64 32 -63 32 -64 -31 c-35 -18 -65 -31 -67 -29 -1 2 3 33 10 70 l11 68 -48
47 c-26 26 -48 50 -48 54 0 3 25 9 56 13 75 9 86 16 114 75 13 28 27 51 32 51
4 0 21 -26 37 -59z m1560 -10 l24 -49 68 -7 c38 -4 69 -10 69 -13 0 -4 -23
-29 -50 -57 l-51 -51 15 -67 c7 -37 12 -67 9 -67 -2 0 -31 14 -65 31 l-62 31
-63 -31 c-72 -35 -72 -35 -52 60 l11 52 -53 47 -54 48 40 11 c22 6 51 11 65
11 32 0 42 8 58 45 39 88 53 89 91 6z"/>
<path d="M2544 3004 c-21 -50 -17 -712 5 -737 18 -23 58 -21 71 2 6 13 10 151
10 380 0 314 -2 362 -16 375 -27 27 -54 20 -70 -20z"/>
<path d="M3646 2693 c-10 -76 -21 -153 -23 -170 l-6 -33 52 0 c52 0 53 0 47
28 -3 15 -13 88 -22 162 -9 74 -20 138 -24 143 -3 4 -15 -54 -24 -130z"/>
</g>
</svg>
